<svg width="905" height="1000" xmlns="http://www.w3.org/2000/svg">

 <g>
  <title>background</title>
  <rect fill="none" id="canvas_background" height="402" width="582" y="-1" x="-1"/>
 </g>
 <g>
  <title>Layer 1</title>
  <path stroke="null" id="svg_1" d="m823.395187,586.1334l0,-101.68004l-737.790373,0l0,101.68004c0,5.694082 3.253761,8.947844 9.761284,8.947844l718.267805,0c6.507523,0 9.761284,-3.253761 9.761284,-8.947844zm-615.774324,-341.644936l-109.001003,203.360081l711.760283,0l-109.814444,-203.360081l-44.739218,0c-4.067202,21.962889 -22.776329,36.604815 -45.552658,36.604815l-91.918756,0c-21.962889,0 -40.672016,-14.641926 -44.739218,-36.604815l-39.045135,0c-4.067202,21.962889 -22.776329,36.604815 -44.739218,36.604815l-91.918756,0c-22.776329,0 -41.485456,-14.641926 -45.552658,-36.604815l-44.739218,0zm412.414244,-8.947844l0,-74.023069c0,-5.694082 -3.253761,-8.947844 -9.761284,-8.947844l-91.918756,0c-5.694082,0 -8.947844,3.253761 -8.947844,8.947844l0,74.023069c0,5.694082 3.253761,8.947844 8.947844,8.947844l91.918756,0c6.507523,0 9.761284,-3.253761 9.761284,-8.947844zm-221.255768,0l0,-74.023069c0,-5.694082 -3.253761,-8.947844 -8.947844,-8.947844l-91.918756,0c-6.507523,0 -9.761284,3.253761 -9.761284,8.947844l0,74.023069c0,5.694082 3.253761,8.947844 9.761284,8.947844l91.918756,0c5.694082,0 8.947844,-3.253761 8.947844,-8.947844zm-183.837513,-165.941826l0,138.284855l36.604815,0l0,-46.366098c0,-25.21665 20.336008,-45.552658 46.366098,-45.552658l91.918756,0c25.21665,0 45.552658,20.336008 45.552658,45.552658l0,46.366098l37.418255,0l0,-46.366098c0,-25.21665 20.336008,-45.552658 45.552658,-45.552658l91.918756,0c26.03009,0 46.366098,20.336008 46.366098,45.552658l0,46.366098l36.604815,0l0,-138.284855c0,-5.694082 -3.253761,-8.947844 -8.947844,-8.947844l-460.407223,0c-5.694082,0 -8.947844,3.253761 -8.947844,8.947844zm515.721165,0l0,152.11334l126.89669,235.897694c1.626881,2.440321 2.440321,5.694082 2.440321,8.947844l0,119.575727c0,21.962889 -16.268806,40.672016 -36.604815,44.739218l0,38.231695c0,9.761284 -8.134403,17.895687 -18.709127,17.895687s-18.709127,-8.134403 -18.709127,-17.895687l0,-37.418255l-662.953863,0l0,37.418255c0,9.761284 -8.134403,17.895687 -18.709127,17.895687s-18.709127,-8.134403 -18.709127,-17.895687l0,-38.231695c-20.336008,-4.067202 -36.604815,-22.776329 -36.604815,-44.739218l0,-119.575727c0,-3.253761 0.81344,-6.507523 2.440321,-8.947844l126.89669,-235.897694l0,-152.11334c0,-25.21665 20.336008,-45.552658 45.552658,-45.552658l461.220663,0c25.21665,0 45.552658,20.336008 45.552658,45.552658z"/>
 </g>
</svg>