<svg width="950" height="754" xmlns="http://www.w3.org/2000/svg">

 <g>
  <title>background</title>
  <rect fill="none" id="canvas_background" height="756" width="952" y="-1" x="-1"/>
 </g>
 <g>
  <title>Layer 1</title>
  <path stroke="null" id="svg_1" d="m685.501934,636.277205c-15.162111,-45.486334 -43.801655,-81.706933 -86.76097,-109.504137c-2.527019,-0.84234 -4.211698,-1.684679 -6.738716,-4.211698c-35.37826,-20.216148 -73.283538,-30.324223 -113.715835,-30.324223c-41.274636,0 -79.179914,10.108074 -113.715835,30.324223c-2.527019,2.527019 -4.211698,3.369358 -6.738716,4.211698c-42.116976,26.112525 -70.756519,63.175464 -85.918631,111.188816c60.648445,44.643994 129.720285,67.387161 206.373181,67.387161c77.495235,0 146.567076,-22.743167 207.215521,-69.07184zm-16.84679,-140.670699c77.495235,0 147.409415,-22.743167 208.05786,-69.07184c-27.797204,-85.076291 -111.188816,-144.040057 -205.530842,-144.882397l-5.054037,0c-26.112525,0.84234 -50.540371,5.896377 -73.283538,13.477432c11.792753,20.216148 17.68913,42.116976 17.68913,64.860143c0,42.959315 -17.68913,78.337575 -53.067389,106.134779c18.531469,5.896377 37.062939,13.477432 55.594408,24.427846c18.531469,3.369358 37.062939,5.054037 55.594408,5.054037zm-380.737461,0c18.531469,0 37.062939,-1.684679 55.594408,-5.054037c18.531469,-10.950414 37.062939,-18.531469 55.594408,-24.427846c-35.37826,-26.954865 -53.067389,-62.333124 -53.067389,-106.134779c0,-22.743167 5.896377,-44.643994 17.68913,-64.860143c-22.743167,-7.581056 -47.171013,-12.635093 -73.283538,-13.477432l-5.054037,0c-94.342026,0.84234 -176.891298,58.963766 -204.688502,146.567076c61.490785,44.643994 130.562625,67.387161 207.215521,67.387161zm256.913552,-202.161484c-18.531469,-18.531469 -40.432297,-27.797204 -66.544822,-27.797204c-51.38271,0 -93.499686,42.959315 -93.499686,94.342026s42.116976,93.499686 93.499686,93.499686s93.499686,-42.116976 93.499686,-93.499686c0,-26.112525 -9.265735,-48.013352 -26.954865,-66.544822zm-323.458374,-208.9002c-18.531469,19.373809 -27.797204,41.274636 -27.797204,67.387161c0,51.38271 41.274636,95.184365 91.815007,95.184365l4.211698,0c50.540371,0 91.815007,-43.801655 91.815007,-95.184365c0,-53.067389 -42.116976,-95.184365 -93.499686,-95.184365c-26.112525,0 -48.013352,9.265735 -66.544822,27.797204zm353.782597,65.702482c0,50.540371 40.432297,92.657347 91.815007,93.499686l4.211698,0c50.540371,-0.84234 91.815007,-42.959315 91.815007,-93.499686c0,-53.067389 -41.274636,-94.342026 -94.342026,-94.342026c-51.38271,0 -93.499686,42.959315 -93.499686,94.342026zm337.778146,266.179287c5.896377,16.004451 0.84234,29.481883 -13.477432,40.432297c-67.387161,51.38271 -145.724736,76.652896 -233.328046,76.652896c26.112525,27.797204 44.643994,58.121427 55.594408,92.657347c5.054037,16.84679 0.84234,30.324223 -13.477432,40.432297c-67.387161,51.38271 -144.040057,76.652896 -229.958688,76.652896s-162.571527,-25.270185 -229.958688,-76.652896c-14.319772,-10.108074 -18.531469,-23.585506 -13.477432,-40.432297c10.950414,-34.53592 29.481883,-64.860143 55.594408,-92.657347l-2.527019,0c-86.76097,0 -163.413866,-25.270185 -229.958688,-76.652896c-14.319772,-10.950414 -19.373809,-24.427846 -13.477432,-40.432297c24.427846,-77.495235 86.76097,-137.301341 164.256206,-160.886847c-35.37826,-26.954865 -53.067389,-62.333124 -53.067389,-105.292439c0,-73.283538 58.963766,-132.247304 132.247304,-132.247304s131.404964,58.963766 131.404964,132.247304c0,44.643994 -17.68913,80.022254 -53.067389,105.292439l21.900827,7.581056c25.270185,-23.585506 55.594408,-35.37826 90.130328,-35.37826s64.860143,11.792753 90.130328,35.37826l21.900827,-7.581056c-35.37826,-25.270185 -53.067389,-60.648445 -53.067389,-105.292439c0,-73.283538 58.121427,-132.247304 131.404964,-132.247304s133.089643,58.963766 133.089643,132.247304c0,42.959315 -17.68913,78.337575 -53.067389,105.292439c77.495235,23.585506 139.82836,82.549273 164.256206,160.886847z"/>
 </g>
</svg>