<svg width="844" height="760" xmlns="http://www.w3.org/2000/svg">

 <g>
  <title>background</title>
  <rect fill="none" id="canvas_background" height="762" width="846" y="-1" x="-1"/>
 </g>
 <g>
  <title>Layer 1</title>
  <path stroke="null" id="svg_1" d="m483.386472,504.516068c-10.595791,11.410852 -22.821704,17.931339 -38.307861,20.376522l0,-105.957914c35.047618,8.150609 52.163896,25.266887 52.163896,51.348835c0,13.856035 -4.890365,25.266887 -13.856035,34.232557zm-69.280174,-253.483932l0,94.547061c-30.157252,-13.040974 -43.198226,-19.561461 -43.198226,-48.088592c0,-13.856035 4.075304,-23.636765 11.410852,-29.342191c4.075304,-5.705426 14.671096,-11.410852 31.787374,-17.116278zm111.66334,138.560349c-26.897009,-22.006644 -44.013287,-23.636765 -80.691027,-35.862678l0,-102.69767c20.376522,8.150609 33.417496,22.006644 39.122922,42.383165c4.075304,17.116278 13.856035,25.266887 30.157252,25.266887c17.116278,0 31.787374,-14.671096 31.787374,-30.157252c0,-10.595791 -4.075304,-24.451826 -22.821704,-50.533774c-20.376522,-20.376522 -46.45847,-31.787374 -78.245844,-34.232557l0,-37.4928c0,-13.040974 -4.890365,-19.561461 -14.671096,-19.561461c-10.595791,0 -16.301217,6.520487 -16.301217,19.561461l0,37.4928c-33.417496,3.260243 -59.499444,13.040974 -78.245844,30.157252c-17.116278,18.7464 -26.081948,41.568105 -26.081948,68.465113c0,21.191583 4.075304,39.122922 13.040974,53.794018c12.225913,20.376522 42.383165,37.4928 91.286818,52.163896l0,114.108522c-23.636765,-7.335548 -34.232557,-17.931339 -40.753044,-33.417496c-2.445183,-3.260243 -6.520487,-13.040974 -11.410852,-30.157252c-7.335548,-15.486157 -13.856035,-18.7464 -30.157252,-18.7464c-17.116278,0 -31.787374,13.040974 -31.787374,30.157252c0,10.595791 2.445183,21.191583 8.150609,31.787374c8.96567,22.821704 26.897009,42.383165 55.424139,57.869322c13.856035,5.705426 30.972313,10.595791 50.533774,13.856035l0,44.828348c0,14.671096 5.705426,22.006644 16.301217,22.006644c9.78073,0 14.671096,-8.96567 14.671096,-27.71207l0,-39.937983c22.006644,-1.630122 42.383165,-7.335548 61.129566,-17.931339c34.232557,-22.006644 51.348835,-52.978957 51.348835,-92.101879c0,-29.342191 -10.595791,-53.794018 -31.787374,-73.355479zm-214.36101,-282.826124c-74.17054,32.602435 -131.224801,88.026574 -163.012175,163.827236c-16.301217,38.307861 -24.451826,77.430783 -24.451826,118.998888c0,111.66334 59.499444,210.285706 154.046505,264.894784c46.45847,26.897009 97.807305,40.753044 152.416384,40.753044c110.848279,0 208.655584,-58.684383 263.264663,-153.231444c26.897009,-46.45847 40.753044,-98.622366 40.753044,-153.231444c0,-81.506087 -33.417496,-161.382053 -88.841635,-216.806193c-56.2392,-55.424139 -134.485044,-89.656696 -215.176071,-89.656696c-41.568105,0 -81.506087,8.150609 -118.998888,24.451826zm118.998888,-87.211514c97.807305,0 192.354366,39.937983 260.004419,107.588035c66.019931,67.650053 107.588035,163.827236 107.588035,261.634541c0,98.622366 -40.753044,193.984488 -107.588035,261.634541c-67.650053,67.650053 -162.197114,107.588035 -260.004419,107.588035c-98.622366,0 -193.984488,-39.937983 -261.634541,-107.588035c-66.019931,-67.650053 -106.772975,-163.012175 -106.772975,-261.634541s40.753044,-193.984488 106.772975,-261.634541c67.650053,-67.650053 163.012175,-107.588035 261.634541,-107.588035z"/>
 </g>
</svg>